<svg id="Capa_1" data-name="Capa 1" xmlns="http://www.w3.org/2000/svg" viewBox="0 0 319.35 287.48"><defs><style>.cls-1{fill:#900;}</style></defs><path class="cls-1" d="M192.44,335.34H51c-12,0-18.2-6.17-18.21-18.17V66.06c0-12,6.18-18.2,18.17-18.2h283c12,0,18.21,6.17,18.21,18.16q0,125.56,0,251.11c0,12-6.19,18.21-18.17,18.21ZM64.83,80.1v223H320.06V80.1Z" transform="translate(-32.75 -47.86)"/><path class="cls-1" d="M139.42,191.85c-15.44-15.44-30.32-30.3-45-45l22.08-22.08c22.17,22.17,44.62,44.62,66.82,66.8l-66.76,66.73L94.7,236.56Z" transform="translate(-32.75 -47.86)"/><path class="cls-1" d="M288,271.35H192.68V239.77H288Z" transform="translate(-32.75 -47.86)"/></svg>